<svg xmlns="http://www.w3.org/2000/svg" enable-background="new 0 0 24 24" viewBox="0 0 24 24" id="google">
  <path fill="#4285F4" d="M23.164,12.647c0-0.758-0.065-1.514-0.201-2.261H12v3.911h6.278c-0.259,1.381-1.097,2.97-2.321,3.746v2.78h3.748C21.899,18.891,23.164,16.03,23.164,12.647L23.164,12.647z"></path>
  <path fill="#34A853" d="M12.237,23.25c3.238,0,5.966-0.98,7.953-2.674l-3.868-2.769c-1.077,0.674-2.462,1.059-4.085,1.059c-3.129,0-5.786-1.946-6.736-4.569H1.518l0.377,2.6C3.931,20.637,7.702,23.25,12.237,23.25z"></path>
  <path fill="#FBBC04" d="M5.502,14.297c-0.43-1.488-0.43-3.105,0-4.593V6.612H2.094c-1.458,3.391-1.458,7.387,0,10.778L5.502,14.297z"></path>
  <path fill="#EA4335" d="M11.981,4.912c1.624-0.027,3.193,0.598,4.369,1.741l3.253-3.313c-2.063-1.973-4.793-3.057-7.622-3.025c-4.305,0-8.243,2.477-10.176,6.397l3.782,2.992C6.489,6.953,9.011,4.912,11.981,4.912z"></path>
  <path d="M12.181,24C5.603,24,0.25,18.617,0.25,12S5.603,0,12.181,0c3.048,0,5.818,1.088,8.01,3.147c0.149,0.14,0.234,0.336,0.236,0.541s-0.081,0.402-0.229,0.544l-3.043,2.944c-0.291,0.281-0.753,0.281-1.044-0.001c-1.63-1.582-4.034-1.975-6.273-1.029C7.983,6.932,6.001,8.881,6.001,12c0,3.504,2.772,6.354,6.18,6.354c3.221,0,4.785-1.874,5.364-3.35h-5.364c-0.414,0-0.75-0.336-0.75-0.75v-3.869c0-0.414,0.336-0.75,0.75-0.75h10.644c0.363,0,0.674,0.26,0.738,0.617c0.098,0.542,0.188,1.161,0.188,2.011C23.75,19.174,18.992,24,12.181,24z M12.181,1.5C6.429,1.5,1.75,6.21,1.75,12s4.679,10.5,10.431,10.5c5.929,0,10.069-4.209,10.069-10.236c0-0.429-0.025-0.787-0.068-1.128h-9.251v2.369h5.598c0.22,0,0.428,0.096,0.57,0.263c0.143,0.167,0.205,0.388,0.171,0.604c-0.3,1.896-2.167,5.482-7.089,5.482c-4.234,0-7.68-3.523-7.68-7.854c0-3.223,1.821-5.995,4.753-7.234c2.567-1.085,5.321-0.749,7.354,0.854l1.961-1.897C16.764,2.266,14.571,1.5,12.181,1.5z"></path>
</svg>
